<svg width="52" height="51" viewBox="0 0 52 51" fill="none" xmlns="http://www.w3.org/2000/svg">
<g clip-path="url(#clip0_412_136)">
<path d="M33.5401 36.516C29.3612 39.6999 24.1021 41.2019 18.8336 40.7162C13.5651 40.2306 8.68344 37.7938 5.18257 33.9019C1.6817 30.0101 -0.175138 24.956 -0.00986209 19.7686C0.155414 14.5812 2.33038 9.6506 6.07217 5.98077C9.81396 2.31093 14.8412 0.177797 20.1303 0.0156994C25.4195 -0.146398 30.5727 1.67473 34.5408 5.10828C38.5089 8.54183 40.9935 13.3296 41.4887 18.4968C41.9839 23.6639 40.4524 28.8219 37.2061 32.9205L51.1161 46.512L47.4241 50.133L33.5661 36.516H33.5401ZM20.8001 35.7C22.8488 35.7 24.8773 35.3043 26.77 34.5354C28.6627 33.7665 30.3824 32.6395 31.831 31.2187C33.2796 29.798 34.4287 28.1114 35.2127 26.2551C35.9966 24.3988 36.4001 22.4092 36.4001 20.4C36.4001 18.3908 35.9966 16.4012 35.2127 14.545C34.4287 12.6887 33.2796 11.002 31.831 9.58128C30.3824 8.16054 28.6627 7.03355 26.77 6.26466C24.8773 5.49576 22.8488 5.10001 20.8001 5.10001C16.6628 5.10001 12.6948 6.71197 9.76928 9.58128C6.84371 12.4506 5.20014 16.3422 5.20014 20.4C5.20014 24.4578 6.84371 28.3494 9.76928 31.2187C12.6948 34.0881 16.6628 35.7 20.8001 35.7Z" fill="#FFBC10"/>
</g>
<defs>
<clipPath id="clip0_412_136">
<rect width="52" height="51" fill="white"/>
</clipPath>
</defs>
</svg>
